<svg data-v-fde0c5aa="" xmlns="http://www.w3.org/2000/svg" viewBox="0 0 300 300" class="iconAbove"><!----><defs data-v-fde0c5aa=""><!----></defs><rect data-v-fde0c5aa="" fill="transparent" x="0" y="0" width="300px" height="300px" class="logo-background-square"></rect><defs data-v-fde0c5aa=""><!----></defs><g data-v-fde0c5aa="" id="44c10d88-4d10-43a3-9dde-364ca22cb7da" fill="#000000" transform="matrix(4.809523809523809,0,0,4.809523809523809,21.9704761675426,178.19000004586718)"><path d="M6.03 8.18L6.03 8.18Q6.96 8.40 7.45 9.04L7.45 9.04L7.45 9.04Q7.94 9.67 7.94 10.71L7.94 10.71L7.94 10.71Q7.94 12.01 7.11 12.76L7.11 12.76L7.11 12.76Q6.27 13.51 4.82 13.51L4.82 13.51L1.12 13.51L1.12 3.71L4.21 3.71L4.21 3.71Q5.56 3.71 6.29 4.31L6.29 4.31L6.29 4.31Q7.03 4.91 7.03 6.10L7.03 6.10L7.03 6.10Q7.03 6.80 6.78 7.35L6.78 7.35L6.78 7.35Q6.52 7.90 6.03 8.18L6.03 8.18ZM2.45 4.90L2.45 7.78L4.05 7.78L4.05 7.78Q4.83 7.78 5.24 7.47L5.24 7.47L5.24 7.47Q5.66 7.15 5.66 6.34L5.66 6.34L5.66 6.34Q5.66 5.53 5.24 5.21L5.24 5.21L5.24 5.21Q4.83 4.90 4.05 4.90L4.05 4.90L2.45 4.90ZM4.70 12.31L4.70 12.31Q5.53 12.31 6.01 11.89L6.01 11.89L6.01 11.89Q6.48 11.48 6.48 10.67L6.48 10.67L6.48 10.67Q6.48 8.99 4.70 8.99L4.70 8.99L2.45 8.99L2.45 12.31L4.70 12.31ZM10.98 13.65L10.98 13.65Q10.05 13.65 9.63 13.17L9.63 13.17L9.63 13.17Q9.20 12.70 9.20 12.00L9.20 12.00L9.20 3.01L10.46 3.01L10.46 11.27L10.46 11.27Q10.46 11.89 10.54 12.17L10.54 12.17L10.54 12.17Q10.61 12.45 10.84 12.54L10.84 12.54L10.84 12.54Q11.06 12.64 11.56 12.64L11.56 12.64L11.38 13.65L10.98 13.65ZM15.51 13.65L15.51 13.65Q14.46 13.65 13.69 13.18L13.69 13.18L13.69 13.18Q12.92 12.71 12.52 11.90L12.52 11.90L12.52 11.90Q12.11 11.09 12.11 10.08L12.11 10.08L12.11 10.08Q12.11 9.07 12.52 8.26L12.52 8.26L12.52 8.26Q12.92 7.45 13.69 6.98L13.69 6.98L13.69 6.98Q14.46 6.51 15.51 6.51L15.51 6.51L15.51 6.51Q16.55 6.51 17.33 6.98L17.33 6.98L17.33 6.98Q18.10 7.45 18.51 8.26L18.51 8.26L18.51 8.26Q18.91 9.07 18.91 10.08L18.91 10.08L18.91 10.08Q18.91 11.09 18.51 11.90L18.51 11.90L18.51 11.90Q18.10 12.71 17.33 13.18L17.33 13.18L17.33 13.18Q16.55 13.65 15.51 13.65L15.51 13.65ZM15.51 12.53L15.51 12.53Q16.52 12.53 17.07 11.89L17.07 11.89L17.07 11.89Q17.63 11.24 17.63 10.08L17.63 10.08L17.63 10.08Q17.63 8.92 17.07 8.27L17.07 8.27L17.07 8.27Q16.52 7.63 15.51 7.63L15.51 7.63L15.51 7.63Q14.50 7.63 13.95 8.27L13.95 8.27L13.95 8.27Q13.40 8.92 13.40 10.08L13.40 10.08L13.40 10.08Q13.40 11.24 13.95 11.89L13.95 11.89L13.95 11.89Q14.50 12.53 15.51 12.53L15.51 12.53ZM22.99 17.01L22.99 17.01Q21.53 17.01 20.63 16.48L20.63 16.48L20.63 16.48Q19.73 15.95 19.73 14.97L19.73 14.97L19.73 14.97Q19.73 13.89 20.92 13.36L20.92 13.36L20.92 13.36Q20.24 13.02 20.24 12.49L20.24 12.49L20.24 12.49Q20.24 11.82 21.06 11.49L21.06 11.49L21.06 11.49Q20.48 11.14 20.17 10.54L20.17 10.54L20.17 10.54Q19.87 9.94 19.87 9.18L19.87 9.18L19.87 9.18Q19.87 8.43 20.21 7.82L20.21 7.82L20.21 7.82Q20.55 7.21 21.19 6.86L21.19 6.86L21.19 6.86Q21.83 6.51 22.69 6.51L22.69 6.51L22.69 6.51Q23.62 6.51 24.37 7.04L24.37 7.04L24.37 7.04Q25.12 6.62 26.08 6.62L26.08 6.62L26.19 6.62L26.04 7.46L25.72 7.46L25.72 7.46Q25.59 7.46 25.35 7.49L25.35 7.49L25.35 7.49Q25.12 7.52 24.93 7.56L24.93 7.56L24.93 7.56Q25.23 7.90 25.38 8.32L25.38 8.32L25.38 8.32Q25.54 8.74 25.54 9.18L25.54 9.18L25.54 9.18Q25.54 9.97 25.19 10.59L25.19 10.59L25.19 10.59Q24.85 11.21 24.21 11.57L24.21 11.57L24.21 11.57Q23.56 11.93 22.69 11.93L22.69 11.93L22.69 11.93Q22.19 11.93 21.77 11.80L21.77 11.80L21.77 11.80Q21.45 11.91 21.45 12.17L21.45 12.17L21.45 12.17Q21.45 12.50 22.22 12.61L22.22 12.61L24.05 12.91L24.05 12.91Q25.20 13.09 25.79 13.57L25.79 13.57L25.79 13.57Q26.38 14.04 26.38 14.88L26.38 14.88L26.38 14.88Q26.38 15.93 25.47 16.47L25.47 16.47L25.47 16.47Q24.57 17.01 22.99 17.01L22.99 17.01ZM22.69 10.92L22.69 10.92Q23.48 10.92 23.91 10.45L23.91 10.45L23.91 10.45Q24.33 9.98 24.33 9.20L24.33 9.20L24.33 9.20Q24.33 8.44 23.91 7.98L23.91 7.98L23.91 7.98Q23.48 7.52 22.69 7.52L22.69 7.52L22.69 7.52Q21.91 7.52 21.49 7.98L21.49 7.98L21.49 7.98Q21.07 8.44 21.07 9.20L21.07 9.20L21.07 9.20Q21.07 9.98 21.49 10.45L21.49 10.45L21.49 10.45Q21.91 10.92 22.69 10.92L22.69 10.92ZM23.10 15.89L23.10 15.89Q24.07 15.89 24.58 15.64L24.58 15.64L24.58 15.64Q25.10 15.39 25.10 14.91L25.10 14.91L25.10 14.91Q25.10 14.55 24.79 14.33L24.79 14.33L24.79 14.33Q24.47 14.11 23.84 13.99L23.84 13.99L21.88 13.65L21.88 13.65Q21.46 13.85 21.20 14.13L21.20 14.13L21.20 14.13Q20.93 14.42 20.93 14.77L20.93 14.77L20.93 14.77Q20.93 15.34 21.50 15.62L21.50 15.62L21.50 15.62Q22.08 15.89 23.10 15.89L23.10 15.89ZM30.67 6.51L30.67 6.51Q31.58 6.51 32.26 6.98L32.26 6.98L32.26 6.98Q32.94 7.45 33.31 8.26L33.31 8.26L33.31 8.26Q33.67 9.07 33.67 10.08L33.67 10.08L33.67 10.08Q33.67 11.10 33.33 11.91L33.33 11.91L33.33 11.91Q32.98 12.71 32.31 13.18L32.31 13.18L32.31 13.18Q31.64 13.65 30.67 13.65L30.67 13.65L30.67 13.65Q29.96 13.65 29.37 13.40L29.37 13.40L29.37 13.40Q28.78 13.15 28.45 12.67L28.45 12.67L28.45 16.90L27.19 16.90L27.19 6.65L28.17 6.65L28.31 7.60L28.31 7.60Q29.18 6.51 30.67 6.51L30.67 6.51ZM30.44 12.53L30.44 12.53Q31.35 12.53 31.86 11.88L31.86 11.88L31.86 11.88Q32.38 11.23 32.38 10.08L32.38 10.08L32.38 10.08Q32.38 8.93 31.86 8.28L31.86 8.28L31.86 8.28Q31.35 7.63 30.44 7.63L30.44 7.63L30.44 7.63Q29.54 7.63 28.96 8.26L28.96 8.26L28.96 8.26Q28.38 8.89 28.38 10.08L28.38 10.08L28.38 10.08Q28.38 11.31 28.95 11.92L28.95 11.92L28.95 11.92Q29.53 12.53 30.44 12.53L30.44 12.53ZM37.98 13.65L37.98 13.65Q36.93 13.65 36.16 13.18L36.16 13.18L36.16 13.18Q35.39 12.71 34.99 11.90L34.99 11.90L34.99 11.90Q34.58 11.09 34.58 10.08L34.58 10.08L34.58 10.08Q34.58 9.07 34.99 8.26L34.99 8.26L34.99 8.26Q35.39 7.45 36.16 6.98L36.16 6.98L36.16 6.98Q36.93 6.51 37.98 6.51L37.98 6.51L37.98 6.51Q39.02 6.51 39.80 6.98L39.80 6.98L39.80 6.98Q40.57 7.45 40.98 8.26L40.98 8.26L40.98 8.26Q41.38 9.07 41.38 10.08L41.38 10.08L41.38 10.08Q41.38 11.09 40.98 11.90L40.98 11.90L40.98 11.90Q40.57 12.71 39.80 13.18L39.80 13.18L39.80 13.18Q39.02 13.65 37.98 13.65L37.98 13.65ZM37.98 12.53L37.98 12.53Q38.99 12.53 39.54 11.89L39.54 11.89L39.54 11.89Q40.10 11.24 40.10 10.08L40.10 10.08L40.10 10.08Q40.10 8.92 39.54 8.27L39.54 8.27L39.54 8.27Q38.99 7.63 37.98 7.63L37.98 7.63L37.98 7.63Q36.97 7.63 36.42 8.27L36.42 8.27L36.42 8.27Q35.87 8.92 35.87 10.08L35.87 10.08L35.87 10.08Q35.87 11.24 36.42 11.89L36.42 11.89L36.42 11.89Q36.97 12.53 37.98 12.53L37.98 12.53ZM44.63 13.65L44.63 13.65Q43.82 13.65 43.21 13.46L43.21 13.46L43.21 13.46Q42.60 13.27 42.28 13.05L42.28 13.05L42.43 11.83L42.43 11.83Q42.71 12.08 43.30 12.31L43.30 12.31L43.30 12.31Q43.88 12.53 44.58 12.53L44.58 12.53L44.58 12.53Q45.23 12.53 45.59 12.31L45.59 12.31L45.59 12.31Q45.95 12.08 45.95 11.68L45.95 11.68L45.95 11.68Q45.95 11.20 45.56 10.96L45.56 10.96L45.56 10.96Q45.16 10.71 44.58 10.54L44.58 10.54L44.58 10.54Q43.93 10.37 43.49 10.18L43.49 10.18L43.49 10.18Q43.05 10.00 42.74 9.60L42.74 9.60L42.74 9.60Q42.42 9.21 42.42 8.57L42.42 8.57L42.42 8.57Q42.42 7.69 43.05 7.10L43.05 7.10L43.05 7.10Q43.68 6.51 45.00 6.51L45.00 6.51L45.00 6.51Q45.60 6.51 46.02 6.63L46.02 6.63L46.02 6.63Q46.44 6.75 46.86 6.96L46.86 6.96L46.70 8.11L46.70 8.11Q46.37 7.83 45.96 7.67L45.96 7.67L45.96 7.67Q45.56 7.50 45.02 7.50L45.02 7.50L45.02 7.50Q44.41 7.50 44.05 7.73L44.05 7.73L44.05 7.73Q43.69 7.97 43.69 8.43L43.69 8.43L43.69 8.43Q43.69 8.74 43.86 8.93L43.86 8.93L43.86 8.93Q44.03 9.11 44.34 9.24L44.34 9.24L44.34 9.24Q44.65 9.37 45.29 9.56L45.29 9.56L45.29 9.56Q46.09 9.80 46.67 10.23L46.67 10.23L46.67 10.23Q47.25 10.67 47.25 11.61L47.25 11.61L47.25 11.61Q47.25 12.45 46.66 13.05L46.66 13.05L46.66 13.05Q46.06 13.65 44.63 13.65L44.63 13.65ZM50.85 13.65L50.85 13.65Q49.94 13.65 49.50 13.17L49.50 13.17L49.50 13.17Q49.06 12.70 49.06 12.01L49.06 12.01L49.06 7.63L47.88 7.63L47.99 6.65L49.06 6.65L49.06 4.96L50.32 4.83L50.32 6.65L52.12 6.65L52.12 7.63L50.32 7.63L50.32 11.24L50.32 11.24Q50.32 11.96 50.40 12.22L50.40 12.22L50.40 12.22Q50.48 12.49 50.76 12.56L50.76 12.56L50.76 12.56Q51.03 12.64 51.76 12.64L51.76 12.64L52.08 12.64L51.98 13.65L50.85 13.65Z"></path></g><defs data-v-fde0c5aa=""><linearGradient data-v-fde0c5aa="" gradientTransform="rotate(25)" id="5e60cb32-a1c8-40cc-a105-b04ae5bb8474" x1="0%" y1="0%" x2="100%" y2="0%"><stop data-v-fde0c5aa="" offset="0%" stop-color="#B41E37" stop-opacity="1"></stop><stop data-v-fde0c5aa="" offset="100%" stop-color="#B89DAD" stop-opacity="1"></stop></linearGradient></defs><g data-v-fde0c5aa="" id="05455fa9-2483-479b-ad01-bf90d26895be" stroke="none" fill="url(#5e60cb32-a1c8-40cc-a105-b04ae5bb8474)" transform="matrix(4.208333333333333,0,0,4.208333333333333,82.66666666666667,40)"><path d="M32 0H0v32h32V0zm-2.812 19.938H23.53C22.109 22.648 19.272 24.5 16 24.5s-6.109-1.852-7.529-4.562H2.812v-7.875H8.47C9.891 9.352 12.728 7.5 16 7.5s6.109 1.852 7.529 4.562h5.658v7.876z"></path></g><!----></svg>