<svg data-v-fde0c5aa="" xmlns="http://www.w3.org/2000/svg" viewBox="0 0 300 300" class="font"><!----><defs data-v-fde0c5aa=""><!----></defs><rect data-v-fde0c5aa="" fill="#111111" x="0" y="0" width="300px" height="300px" class="logo-background-square"></rect><defs data-v-fde0c5aa=""><!----></defs><g data-v-fde0c5aa="" id="ae45da61-4c27-4c74-8a1e-8215d871893d" fill="#FFFEFE" transform="matrix(4.575707343522627,0,0,4.575707343522627,39.63394338660853,99.71297625104899)"><path d="M4.48 9.13L3.33 14.49L1.32 14.49L3.22 5.59L5.29 5.31L4.63 8.41L4.72 8.41L4.72 8.41Q5.50 8.41 6.12 7.70L6.12 7.70L6.12 7.70Q6.73 6.99 6.73 6.15L6.73 6.15L6.73 6.15Q6.73 5.45 6.25 5.04L6.25 5.04L6.25 5.04Q5.77 4.63 4.89 4.63L4.89 4.63L4.89 4.63Q3.42 4.63 2.40 5.57L2.40 5.57L2.40 5.57Q1.39 6.51 1.39 8.04L1.39 8.04L1.39 8.04Q1.39 8.30 1.42 8.50L1.42 8.50L1.42 8.50Q1.46 8.69 1.54 8.88L1.54 8.88L1.54 8.88Q1.57 8.93 1.57 8.95L1.57 8.95L1.57 8.95Q1.58 8.97 1.58 8.99L1.58 8.99L1.58 8.99Q0.83 8.99 0.46 8.67L0.46 8.67L0.46 8.67Q0.08 8.34 0.08 7.70L0.08 7.70L0.08 7.70Q0.08 6.94 0.57 6.22L0.57 6.22L0.57 6.22Q1.05 5.49 1.90 4.94L1.90 4.94L1.90 4.94Q2.60 4.48 3.45 4.23L3.45 4.23L3.45 4.23Q4.30 3.99 5.17 3.99L5.17 3.99L5.17 3.99Q6.54 3.99 7.34 4.61L7.34 4.61L7.34 4.61Q8.15 5.22 8.15 6.22L8.15 6.22L8.15 6.22Q8.15 6.87 7.77 7.48L7.77 7.48L7.77 7.48Q7.39 8.08 6.75 8.44L6.75 8.44L6.75 8.44Q7.55 8.60 7.97 9.19L7.97 9.19L7.97 9.19Q8.40 9.79 8.40 10.70L8.40 10.70L8.40 10.70Q8.40 11.35 8.20 12.08L8.20 12.08L8.20 12.08Q8.01 12.81 7.66 13.37L7.66 13.37L7.66 13.37Q7.24 14.04 6.65 14.38L6.65 14.38L6.65 14.38Q6.06 14.73 5.33 14.73L5.33 14.73L5.33 14.73Q4.68 14.73 4.31 14.46L4.31 14.46L4.31 14.46Q3.95 14.20 3.95 13.69L3.95 13.69L3.95 13.69Q3.95 13.52 3.99 13.32L3.99 13.32L3.99 13.32Q4.03 13.12 4.13 12.88L4.13 12.88L4.13 12.88Q4.40 13.15 4.61 13.27L4.61 13.27L4.61 13.27Q4.83 13.38 5.07 13.38L5.07 13.38L5.07 13.38Q5.70 13.38 6.08 12.66L6.08 12.66L6.08 12.66Q6.45 11.93 6.45 10.86L6.45 10.86L6.45 10.86Q6.45 9.98 6.12 9.53L6.12 9.53L6.12 9.53Q5.78 9.09 5.12 9.09L5.12 9.09L5.12 9.09Q5.03 9.09 4.84 9.10L4.84 9.10L4.84 9.10Q4.65 9.11 4.48 9.13L4.48 9.13ZM8.78 12.89L8.78 12.89L8.78 12.89Q8.78 12.71 8.81 12.48L8.81 12.48L8.81 12.48Q8.83 12.25 8.89 11.98L8.89 11.98L10.39 4.97L12.46 4.69L10.85 12.25L10.85 12.25Q10.82 12.38 10.81 12.48L10.81 12.48L10.81 12.48Q10.79 12.59 10.79 12.70L10.79 12.70L10.79 12.70Q10.79 12.98 10.93 13.10L10.93 13.10L10.93 13.10Q11.06 13.22 11.37 13.22L11.37 13.22L11.37 13.22Q11.76 13.22 12.11 12.87L12.11 12.87L12.11 12.87Q12.46 12.53 12.63 11.98L12.63 11.98L13.22 11.98L13.22 11.98Q12.77 13.26 12.01 13.92L12.01 13.92L12.01 13.92Q11.26 14.57 10.28 14.57L10.28 14.57L10.28 14.57Q9.58 14.57 9.18 14.13L9.18 14.13L9.18 14.13Q8.78 13.69 8.78 12.89ZM12.04 12.33L12.04 12.33L12.04 12.33Q12.04 11.54 12.30 10.64L12.30 10.64L12.30 10.64Q12.56 9.74 13.01 9.04L13.01 9.04L13.01 9.04Q13.52 8.22 14.25 7.79L14.25 7.79L14.25 7.79Q14.98 7.36 15.88 7.36L15.88 7.36L15.88 7.36Q16.77 7.36 17.22 7.92L17.22 7.92L17.22 7.92Q17.67 8.48 17.67 9.60L17.67 9.60L17.67 9.60Q17.70 9.62 17.73 9.63L17.73 9.63L17.73 9.63Q17.77 9.63 17.82 9.63L17.82 9.63L17.82 9.63Q18.26 9.63 18.86 9.39L18.86 9.39L18.86 9.39Q19.46 9.16 19.98 8.79L19.98 8.79L20.10 9.17L20.10 9.17Q19.71 9.59 19.06 9.90L19.06 9.90L19.06 9.90Q18.41 10.21 17.63 10.33L17.63 10.33L17.63 10.33Q17.46 12.22 16.53 13.38L16.53 13.38L16.53 13.38Q15.61 14.55 14.28 14.55L14.28 14.55L14.28 14.55Q13.19 14.55 12.61 13.99L12.61 13.99L12.61 13.99Q12.04 13.43 12.04 12.33ZM15.99 8.22L15.99 8.22L15.99 8.22Q15.32 8.22 14.72 9.58L14.72 9.58L14.72 9.58Q14.13 10.93 14.13 12.15L14.13 12.15L14.13 12.15Q14.13 12.81 14.27 13.05L14.27 13.05L14.27 13.05Q14.42 13.29 14.84 13.29L14.84 13.29L14.84 13.29Q15.36 13.29 15.83 12.45L15.83 12.45L15.83 12.45Q16.30 11.61 16.46 10.37L16.46 10.37L16.46 10.37Q16.27 10.33 16.18 10.19L16.18 10.19L16.18 10.19Q16.09 10.04 16.09 9.79L16.09 9.79L16.09 9.79Q16.09 9.52 16.20 9.32L16.20 9.32L16.20 9.32Q16.31 9.13 16.52 9.03L16.52 9.03L16.52 9.03Q16.49 8.58 16.37 8.40L16.37 8.40L16.37 8.40Q16.25 8.22 15.99 8.22ZM23.24 8.13L23.24 8.13L23.24 8.22L23.39 7.49L25.41 7.49L24.02 13.99L24.02 13.99Q24.72 13.73 25.12 13.28L25.12 13.28L25.12 13.28Q25.52 12.82 25.79 11.98L25.79 11.98L26.38 11.98L26.38 11.98Q26.05 13.05 25.46 13.69L25.46 13.69L25.46 13.69Q24.86 14.34 23.90 14.60L23.90 14.60L23.69 15.61L23.69 15.61Q23.44 16.79 22.81 17.39L22.81 17.39L22.81 17.39Q22.18 17.99 21.17 17.99L21.17 17.99L21.17 17.99Q20.45 17.99 20.03 17.63L20.03 17.63L20.03 17.63Q19.60 17.26 19.60 16.63L19.60 16.63L19.60 16.63Q19.60 15.95 20.17 15.42L20.17 15.42L20.17 15.42Q20.73 14.90 21.88 14.55L21.88 14.55L22.05 13.80L22.05 13.80Q21.69 14.18 21.27 14.38L21.27 14.38L21.27 14.38Q20.85 14.57 20.37 14.57L20.37 14.57L20.37 14.57Q19.50 14.57 19.01 13.99L19.01 13.99L19.01 13.99Q18.51 13.40 18.51 12.32L18.51 12.32L18.51 12.32Q18.51 11.54 18.75 10.68L18.75 10.68L18.75 10.68Q18.98 9.83 19.40 9.13L19.40 9.13L19.40 9.13Q19.92 8.30 20.61 7.86L20.61 7.86L20.61 7.86Q21.29 7.42 22.11 7.42L22.11 7.42L22.11 7.42Q22.65 7.42 22.95 7.61L22.95 7.61L22.95 7.61Q23.24 7.80 23.24 8.13ZM22.40 12.12L23.11 8.81L23.11 8.81Q23.10 8.58 22.95 8.44L22.95 8.44L22.95 8.44Q22.79 8.29 22.54 8.29L22.54 8.29L22.54 8.29Q21.77 8.29 21.18 9.58L21.18 9.58L21.18 9.58Q20.58 10.86 20.58 12.12L20.58 12.12L20.58 12.12Q20.58 12.67 20.73 12.94L20.73 12.94L20.73 12.94Q20.89 13.22 21.28 13.22L21.28 13.22L21.28 13.22Q21.62 13.22 21.95 12.91L21.95 12.91L21.95 12.91Q22.27 12.60 22.40 12.12L22.40 12.12ZM21.66 15.65L21.74 15.25L21.74 15.25Q21.04 15.51 20.71 15.80L20.71 15.80L20.71 15.80Q20.37 16.09 20.37 16.44L20.37 16.44L20.37 16.44Q20.37 16.62 20.51 16.76L20.51 16.76L20.51 16.76Q20.65 16.90 20.85 16.90L20.85 16.90L20.85 16.90Q21.08 16.90 21.31 16.56L21.31 16.56L21.31 16.56Q21.53 16.23 21.66 15.65L21.66 15.65ZM28.41 9.11L27.58 13.03L27.58 13.03Q27.64 13.19 27.78 13.27L27.78 13.27L27.78 13.27Q27.92 13.36 28.11 13.36L28.11 13.36L28.11 13.36Q28.99 13.36 29.53 12.22L29.53 12.22L29.53 12.22Q30.07 11.09 30.07 9.59L30.07 9.59L30.07 9.59Q30.07 9.02 29.90 8.72L29.90 8.72L29.90 8.72Q29.74 8.43 29.37 8.43L29.37 8.43L29.37 8.43Q29.12 8.43 28.85 8.62L28.85 8.62L28.85 8.62Q28.59 8.81 28.41 9.11L28.41 9.11ZM27.36 14.07L26.63 17.49L24.51 17.99L26.85 6.97L28.87 6.97L28.64 8.02L28.64 8.02Q28.99 7.73 29.40 7.57L29.40 7.57L29.40 7.57Q29.81 7.42 30.28 7.42L30.28 7.42L30.28 7.42Q31.12 7.42 31.56 7.98L31.56 7.98L31.56 7.98Q31.99 8.54 31.99 9.63L31.99 9.63L31.99 9.63Q31.99 11.77 31.07 13.17L31.07 13.17L31.07 13.17Q30.16 14.57 28.55 14.57L28.55 14.57L28.55 14.57Q28.10 14.57 27.80 14.45L27.80 14.45L27.80 14.45Q27.50 14.32 27.36 14.07L27.36 14.07ZM32.14 12.33L32.14 12.33L32.14 12.33Q32.14 11.54 32.40 10.64L32.40 10.64L32.40 10.64Q32.66 9.74 33.11 9.04L33.11 9.04L33.11 9.04Q33.63 8.22 34.36 7.79L34.36 7.79L34.36 7.79Q35.08 7.36 35.98 7.36L35.98 7.36L35.98 7.36Q36.88 7.36 37.32 7.92L37.32 7.92L37.32 7.92Q37.77 8.48 37.77 9.60L37.77 9.60L37.77 9.60Q37.80 9.62 37.84 9.63L37.84 9.63L37.84 9.63Q37.87 9.63 37.93 9.63L37.93 9.63L37.93 9.63Q38.36 9.63 38.96 9.39L38.96 9.39L38.96 9.39Q39.56 9.16 40.08 8.79L40.08 8.79L40.21 9.17L40.21 9.17Q39.82 9.59 39.17 9.90L39.17 9.90L39.17 9.90Q38.51 10.21 37.73 10.33L37.73 10.33L37.73 10.33Q37.56 12.22 36.64 13.38L36.64 13.38L36.64 13.38Q35.71 14.55 34.38 14.55L34.38 14.55L34.38 14.55Q33.29 14.55 32.72 13.99L32.72 13.99L32.72 13.99Q32.14 13.43 32.14 12.33ZM36.09 8.22L36.09 8.22L36.09 8.22Q35.42 8.22 34.83 9.58L34.83 9.58L34.83 9.58Q34.23 10.93 34.23 12.15L34.23 12.15L34.23 12.15Q34.23 12.81 34.38 13.05L34.38 13.05L34.38 13.05Q34.52 13.29 34.94 13.29L34.94 13.29L34.94 13.29Q35.46 13.29 35.93 12.45L35.93 12.45L35.93 12.45Q36.40 11.61 36.57 10.37L36.57 10.37L36.57 10.37Q36.37 10.33 36.28 10.19L36.28 10.19L36.28 10.19Q36.19 10.04 36.19 9.79L36.19 9.79L36.19 9.79Q36.19 9.52 36.30 9.32L36.30 9.32L36.30 9.32Q36.41 9.13 36.62 9.03L36.62 9.03L36.62 9.03Q36.60 8.58 36.48 8.40L36.48 8.40L36.48 8.40Q36.36 8.22 36.09 8.22ZM42.88 12.15L42.88 12.15L42.88 12.15Q42.88 12.32 42.87 12.45L42.87 12.45L42.87 12.45Q42.85 12.57 42.83 12.68L42.83 12.68L42.83 12.68Q43.11 12.52 43.37 12.33L43.37 12.33L43.37 12.33Q43.64 12.15 43.83 11.98L43.83 11.98L44.42 11.98L44.42 11.98Q43.99 12.49 43.46 12.92L43.46 12.92L43.46 12.92Q42.94 13.34 42.28 13.73L42.28 13.73L42.28 13.73Q41.90 14.14 41.31 14.36L41.31 14.36L41.31 14.36Q40.73 14.57 40.08 14.57L40.08 14.57L40.08 14.57Q39.14 14.57 38.59 14.06L38.59 14.06L38.59 14.06Q38.04 13.55 38.04 12.78L38.04 12.78L38.04 12.78Q38.04 12.35 38.25 11.99L38.25 11.99L38.25 11.99Q38.46 11.63 38.78 11.48L38.78 11.48L38.78 11.48Q39.26 10.63 39.67 9.65L39.67 9.65L39.67 9.65Q40.08 8.68 40.50 7.34L40.50 7.34L42.57 7.06L42.57 7.06Q42.62 8.11 42.67 8.97L42.67 8.97L42.67 8.97Q42.73 9.84 42.81 10.86L42.81 10.86L42.81 10.86Q42.85 11.45 42.87 11.69L42.87 11.69L42.87 11.69Q42.88 11.93 42.88 12.15ZM40.59 8.85L40.59 8.85L40.59 8.85Q40.40 9.42 40.15 10.04L40.15 10.04L40.15 10.04Q39.89 10.67 39.45 11.49L39.45 11.49L39.45 11.49Q39.61 11.56 39.69 11.69L39.69 11.69L39.69 11.69Q39.77 11.82 39.77 11.98L39.77 11.98L39.77 11.98Q39.77 12.25 39.59 12.46L39.59 12.46L39.59 12.46Q39.41 12.67 39.16 12.67L39.16 12.67L39.16 12.67Q39.02 12.67 38.92 12.62L38.92 12.62L38.92 12.62Q38.82 12.57 38.78 12.49L38.78 12.49L38.78 12.49Q38.78 13.01 38.98 13.24L38.98 13.24L38.98 13.24Q39.19 13.47 39.63 13.47L39.63 13.47L39.63 13.47Q40.21 13.47 40.53 13.13L40.53 13.13L40.53 13.13Q40.85 12.80 40.85 12.17L40.85 12.17L40.85 12.17Q40.85 11.97 40.84 11.77L40.84 11.77L40.84 11.77Q40.82 11.56 40.78 11.09L40.78 11.09L40.78 11.09Q40.71 10.43 40.67 9.93L40.67 9.93L40.67 9.93Q40.63 9.42 40.59 8.85ZM44.21 8.05L44.32 7.49L44.79 7.49L45.21 5.56L47.28 5.28L46.80 7.49L47.64 7.49L47.53 8.05L46.69 8.05L45.79 12.25L45.79 12.25Q45.77 12.38 45.75 12.48L45.75 12.48L45.75 12.48Q45.74 12.59 45.74 12.70L45.74 12.70L45.74 12.70Q45.74 12.98 45.87 13.10L45.87 13.10L45.87 13.10Q46.00 13.22 46.31 13.22L46.31 13.22L46.31 13.22Q46.70 13.22 47.05 12.87L47.05 12.87L47.05 12.87Q47.40 12.53 47.57 11.98L47.57 11.98L48.16 11.98L48.16 11.98Q47.71 13.26 46.96 13.92L46.96 13.92L46.96 13.92Q46.20 14.57 45.22 14.57L45.22 14.57L45.22 14.57Q44.52 14.57 44.12 14.13L44.12 14.13L44.12 14.13Q43.72 13.69 43.72 12.89L43.72 12.89L43.72 12.89Q43.72 12.71 43.75 12.48L43.75 12.48L43.75 12.48Q43.78 12.25 43.83 11.98L43.83 11.98L44.67 8.05L44.21 8.05Z"></path></g><!----><!----></svg>